<svg xmlns="http://www.w3.org/2000/svg" viewBox="0 0 120 120" width="120" height="120">
  <!-- Dark blue circle background -->
  <circle cx="60" cy="60" r="58" fill="#003588"/>

  <!-- Capsule pill - left half -->
  <path d="M22 58 Q22 44 34 44 L52 44 L52 72 L34 72 Q22 72 22 58Z" fill="#059669"/>
  <!-- Capsule pill - right half -->
  <path d="M52 44 L68 44 Q80 44 80 58 Q80 72 68 72 L52 72 Z" fill="#FFFFFF"/>
  <!-- Capsule dividing line -->
  <line x1="52" y1="44" x2="52" y2="72" stroke="#E8F0F7" stroke-width="2"/>

  <!-- Syringe - right side -->
  <!-- Barrel -->
  <rect x="72" y="40" width="16" height="42" rx="4" fill="#93c5fd"/>
  <!-- Plunger -->
  <rect x="76" y="34" width="8" height="12" rx="2" fill="#FFFFFF"/>
  <rect x="74" y="34" width="12" height="4" rx="2" fill="#266AFB"/>
  <!-- Needle -->
  <rect x="78" y="80" width="4" height="16" rx="2" fill="#FFFFFF"/>
  <path d="M78 96 L80 104 L82 96Z" fill="#FFFFFF"/>
  <!-- Graduation marks on barrel -->
  <line x1="72" y1="52" x2="78" y2="52" stroke="#FFFFFF" stroke-width="1.5"/>
  <line x1="72" y1="60" x2="78" y2="60" stroke="#FFFFFF" stroke-width="1.5"/>
  <line x1="72" y1="68" x2="78" y2="68" stroke="#FFFFFF" stroke-width="1.5"/>
</svg>
